<mxfile host="65bd71144e" modified="2020-12-17T16:12:41.706Z" agent="5.0 (Windows NT 10.0; Win64; x64) AppleWebKit/537.36 (KHTML, like Gecko) Code/1.52.0 Chrome/83.0.4103.122 Electron/9.3.5 Safari/537.36" etag="eypna1NXV-QeZj-9dk_6" version="13.10.0" type="embed">
    <diagram id="Kkey17pd0ZELBRBQ-qmb" name="Page-1">
        <mxGraphModel dx="837" dy="739" grid="1" gridSize="10" guides="1" tooltips="1" connect="1" arrows="1" fold="1" page="1" pageScale="1" pageWidth="850" pageHeight="1100" math="0" shadow="0">
            <root>
                <mxCell id="0"/>
                <mxCell id="1" parent="0"/>
                <mxCell id="pzDvPUQD907vd1MO_fLw-7" style="edgeStyle=orthogonalEdgeStyle;rounded=0;orthogonalLoop=1;jettySize=auto;html=1;entryX=0.5;entryY=0;entryDx=0;entryDy=0;entryPerimeter=0;endArrow=none;endFill=0;exitX=0;exitY=0.5;exitDx=0;exitDy=0;exitPerimeter=0;" parent="1" source="5" target="pzDvPUQD907vd1MO_fLw-3" edge="1">
                    <mxGeometry relative="1" as="geometry">
                        <mxPoint x="386.49" y="266.51724137931035" as="sourcePoint"/>
                    </mxGeometry>
                </mxCell>
                <mxCell id="pzDvPUQD907vd1MO_fLw-8" style="edgeStyle=orthogonalEdgeStyle;rounded=0;orthogonalLoop=1;jettySize=auto;html=1;entryX=0.5;entryY=0;entryDx=0;entryDy=0;entryPerimeter=0;endArrow=none;endFill=0;exitX=1;exitY=0.5;exitDx=0;exitDy=0;exitPerimeter=0;" parent="1" source="5" target="pzDvPUQD907vd1MO_fLw-2" edge="1">
                    <mxGeometry relative="1" as="geometry">
                        <mxPoint x="464.49" y="266.51724137931035" as="sourcePoint"/>
                    </mxGeometry>
                </mxCell>
                <mxCell id="pzDvPUQD907vd1MO_fLw-19" style="rounded=0;orthogonalLoop=1;jettySize=auto;html=1;exitX=0.5;exitY=0;exitDx=0;exitDy=0;exitPerimeter=0;jumpStyle=none;elbow=vertical;entryX=0.5;entryY=1;entryDx=0;entryDy=0;endArrow=none;endFill=0;" parent="1" target="pzDvPUQD907vd1MO_fLw-18" edge="1">
                    <mxGeometry relative="1" as="geometry">
                        <mxPoint x="425.49" y="240" as="sourcePoint"/>
                    </mxGeometry>
                </mxCell>
                <mxCell id="pzDvPUQD907vd1MO_fLw-2" value="realmar.epic.&lt;br&gt;RPI4&lt;br&gt;192.168.1.128&lt;br&gt;&lt;br&gt;DHCP, DNS,&lt;br&gt;Mosquitto Broker,&lt;br&gt;Stream Processor,&lt;br&gt;InfluxDB, Grafana" style="shape=mxgraph.cisco.servers.fileserver;html=1;pointerEvents=1;dashed=0;fillColor=#036897;strokeColor=#ffffff;strokeWidth=2;verticalLabelPosition=bottom;verticalAlign=top;align=center;outlineConnect=0;" parent="1" vertex="1">
                    <mxGeometry x="570" y="357" width="43" height="62" as="geometry"/>
                </mxCell>
                <mxCell id="pzDvPUQD907vd1MO_fLw-13" style="edgeStyle=orthogonalEdgeStyle;rounded=0;orthogonalLoop=1;jettySize=auto;html=1;exitX=0.5;exitY=1;exitDx=0;exitDy=0;exitPerimeter=0;entryX=0.5;entryY=0;entryDx=0;entryDy=0;entryPerimeter=0;endArrow=none;endFill=0;" parent="1" source="pzDvPUQD907vd1MO_fLw-3" target="pzDvPUQD907vd1MO_fLw-4" edge="1">
                    <mxGeometry relative="1" as="geometry"/>
                </mxCell>
                <mxCell id="pzDvPUQD907vd1MO_fLw-14" style="edgeStyle=orthogonalEdgeStyle;rounded=0;orthogonalLoop=1;jettySize=auto;html=1;exitX=0.5;exitY=1;exitDx=0;exitDy=0;exitPerimeter=0;entryX=0.5;entryY=0;entryDx=0;entryDy=0;entryPerimeter=0;endArrow=none;endFill=0;" parent="1" source="pzDvPUQD907vd1MO_fLw-3" target="pzDvPUQD907vd1MO_fLw-6" edge="1">
                    <mxGeometry relative="1" as="geometry"/>
                </mxCell>
                <mxCell id="pzDvPUQD907vd1MO_fLw-3" value="Switch" style="shape=mxgraph.cisco.switches.atm_switch;html=1;pointerEvents=1;dashed=0;fillColor=#036897;strokeColor=#ffffff;strokeWidth=2;verticalLabelPosition=bottom;verticalAlign=top;align=center;outlineConnect=0;" parent="1" vertex="1">
                    <mxGeometry x="229.5" y="357" width="54" height="56" as="geometry"/>
                </mxCell>
                <mxCell id="pzDvPUQD907vd1MO_fLw-4" value="bathroom.epic.&lt;br&gt;ZHAW RPI&lt;br&gt;192.168.1.232&lt;br&gt;&lt;br&gt;Ultrasonic&lt;br&gt;Lux" style="shape=mxgraph.cisco.servers.file_server;html=1;pointerEvents=1;dashed=0;fillColor=#036897;strokeColor=#ffffff;strokeWidth=2;verticalLabelPosition=bottom;verticalAlign=top;align=center;outlineConnect=0;" parent="1" vertex="1">
                    <mxGeometry x="190" y="516" width="43" height="58" as="geometry"/>
                </mxCell>
                <mxCell id="pzDvPUQD907vd1MO_fLw-6" value="workplace.epic.&lt;br&gt;ZHAW RPI&lt;br&gt;192.168.1.233&lt;br&gt;&lt;br&gt;Lux" style="shape=mxgraph.cisco.servers.file_server;html=1;pointerEvents=1;dashed=0;fillColor=#036897;strokeColor=#ffffff;strokeWidth=2;verticalLabelPosition=bottom;verticalAlign=top;align=center;outlineConnect=0;" parent="1" vertex="1">
                    <mxGeometry x="283.5" y="516" width="43" height="60" as="geometry"/>
                </mxCell>
                <mxCell id="pzDvPUQD907vd1MO_fLw-20" value="" style="edgeStyle=none;rounded=0;jumpStyle=none;orthogonalLoop=1;jettySize=auto;html=1;endArrow=none;endFill=0;strokeColor=#000000;" parent="1" source="pzDvPUQD907vd1MO_fLw-18" edge="1">
                    <mxGeometry relative="1" as="geometry">
                        <mxPoint x="425.49" y="240" as="targetPoint"/>
                    </mxGeometry>
                </mxCell>
                <mxCell id="pzDvPUQD907vd1MO_fLw-18" value="The Internet" style="aspect=fixed;perimeter=ellipsePerimeter;html=1;align=center;shadow=0;dashed=0;spacingTop=3;image;image=img/lib/active_directory/internet_cloud.svg;" parent="1" vertex="1">
                    <mxGeometry x="362" y="100" width="126.98" height="80" as="geometry"/>
                </mxCell>
                <mxCell id="7" style="edgeStyle=orthogonalEdgeStyle;rounded=0;orthogonalLoop=1;jettySize=auto;html=1;endArrow=none;endFill=0;dashed=1;elbow=vertical;curved=1;" edge="1" parent="1" source="2">
                    <mxGeometry relative="1" as="geometry">
                        <mxPoint x="430" y="370" as="targetPoint"/>
                    </mxGeometry>
                </mxCell>
                <mxCell id="8" value="IP WiFi" style="edgeLabel;html=1;align=center;verticalAlign=middle;resizable=0;points=[];" vertex="1" connectable="0" parent="7">
                    <mxGeometry x="-0.2207" y="10" relative="1" as="geometry">
                        <mxPoint x="4.999999999999999" y="18.31" as="offset"/>
                    </mxGeometry>
                </mxCell>
                <mxCell id="2" value="ash-laptop.epic.&lt;br&gt;Private Laptop&lt;br&gt;192.168.1.162&lt;br&gt;&lt;br&gt;Microphone" style="shape=mxgraph.cisco.computers_and_peripherals.laptop;html=1;pointerEvents=1;dashed=0;fillColor=#036897;strokeColor=#ffffff;strokeWidth=2;verticalLabelPosition=bottom;verticalAlign=top;align=center;outlineConnect=0;" vertex="1" parent="1">
                    <mxGeometry x="420" y="590" width="90" height="61" as="geometry"/>
                </mxCell>
                <mxCell id="5" value="&lt;div&gt;Swisscom InternetBox&lt;/div&gt;&lt;div&gt;Router&lt;/div&gt;&lt;div&gt;192.168.1.0/24&lt;br&gt;&lt;/div&gt;&lt;div&gt;192.168.1.1&lt;/div&gt;" style="shape=mxgraph.cisco.routers.wireless_router;html=1;pointerEvents=1;dashed=0;fillColor=#036897;strokeColor=#ffffff;strokeWidth=2;verticalLabelPosition=bottom;verticalAlign=top;align=center;outlineConnect=0;" vertex="1" parent="1">
                    <mxGeometry x="386.49" y="220" width="78" height="77" as="geometry"/>
                </mxCell>
                <mxCell id="6" value="" style="html=1;verticalLabelPosition=bottom;align=center;labelBackgroundColor=#ffffff;verticalAlign=top;strokeWidth=2;strokeColor=#0080F0;shadow=0;dashed=0;shape=mxgraph.ios7.icons.wifi;pointerEvents=1" vertex="1" parent="1">
                    <mxGeometry x="434.79" y="574" width="29.7" height="21" as="geometry"/>
                </mxCell>
                <mxCell id="11" style="edgeStyle=orthogonalEdgeStyle;curved=1;rounded=0;orthogonalLoop=1;jettySize=auto;html=1;entryX=1;entryY=0.5;entryDx=0;entryDy=0;entryPerimeter=0;dashed=1;endArrow=none;endFill=0;" edge="1" parent="1" source="10" target="pzDvPUQD907vd1MO_fLw-2">
                    <mxGeometry relative="1" as="geometry"/>
                </mxCell>
                <mxCell id="12" value="zigbee" style="edgeLabel;html=1;align=center;verticalAlign=middle;resizable=0;points=[];" vertex="1" connectable="0" parent="11">
                    <mxGeometry x="-0.0775" y="-1" relative="1" as="geometry">
                        <mxPoint as="offset"/>
                    </mxGeometry>
                </mxCell>
                <mxCell id="10" value="Aqara Sensor&lt;br&gt;Uses Zigbee protocol&lt;br&gt;&lt;br&gt;Temperature&lt;br&gt;Humidity&lt;br&gt;Pressure" style="outlineConnect=0;dashed=0;verticalLabelPosition=bottom;verticalAlign=top;align=center;html=1;shape=mxgraph.aws3.sensor;fillColor=#5294CF;gradientColor=none;" vertex="1" parent="1">
                    <mxGeometry x="800" y="419" width="76.5" height="90" as="geometry"/>
                </mxCell>
            </root>
        </mxGraphModel>
    </diagram>
</mxfile>
